<svg width="337" height="550" viewBox="0 0 337 550" fill="none" xmlns="http://www.w3.org/2000/svg">
<path d="M180.645 226.506C125.401 253.192 -5.21263 501.979 61.5748 485.356C128.362 468.732 310 505.292 310 505.292C280.434 300.713 235.889 199.821 180.645 226.506Z" fill="#DDE03A"/>
<path d="M171.645 233.506C116.401 260.192 -14.2126 508.979 52.5748 492.356C119.362 475.732 301 512.292 301 512.292C271.434 307.713 226.889 206.821 171.645 233.506Z" fill="black" fill-opacity="0.35"/>
<path d="M194.669 166.728C183.931 213.159 194.669 211.292 194.669 244.792C194.669 278.292 132.721 275.034 121.364 258.62C110.006 242.206 80.4091 251.781 78 258.62C88.3604 222.734 116.201 209.378 104.53 166.728C95.373 151.288 87.9091 113.325 92.4546 88.3255C97 63.3255 121.364 78.3255 137 63.3255C152.636 48.3255 156 88.3255 183 63.3255C210 38.3255 183 114.325 194.669 119.325C206.338 124.325 194.669 166.728 194.669 166.728Z" fill="#866161"/>
<path d="M194.669 166.728C183.931 213.159 194.669 211.292 194.669 244.792C194.669 278.292 132.721 275.034 121.364 258.62C110.006 242.206 80.4091 251.781 78 258.62C88.3604 222.734 116.201 209.378 104.53 166.728M194.669 166.728C165.943 188.224 124.942 201.15 104.53 166.728M194.669 166.728C194.669 166.728 206.338 124.325 194.669 119.325C183 114.325 210 38.3255 183 63.3255C156 88.3255 152.636 48.3255 137 63.3255C121.364 78.3255 97 63.3255 92.4546 88.3255C87.9091 113.325 95.373 151.288 104.53 166.728" stroke="white" stroke-width="5"/>
<path d="M141.87 124.288C141.221 138.212 147.332 140.587 150.469 140.034" stroke="white" stroke-width="3"/>
<path d="M107.429 219.501C69.0406 178.422 -14.7046 545.644 25.7954 526.644C66.2954 507.644 176.441 549.43 176.441 549.43C158.512 315.607 145.817 260.581 107.429 219.501Z" fill="#CD7575"/>
<path d="M3 370.51C28.0226 508.873 131.207 545.646 102.423 465.879C73.6383 386.112 85.875 280.418 127.081 338.525C168.286 396.632 250.698 169.714 234.34 285.928C217.983 402.142 335 524.292 335 524.292" stroke="white" stroke-width="5"/>
<path d="M192 26.2923C293.403 119.157 201.034 123.174 233 210.292C233 210.292 218 188.292 205 199.292C192 210.292 206 196.292 210 174.292C214 152.292 194.312 198.226 196 196.292C197.688 194.359 90.5249 247.807 69 196.292C47.4751 144.778 90.597 -66.572 192 26.2923Z" stroke="white" stroke-width="5"/>
<path d="M190.662 252.288C187.514 250.96 176.683 245.068 159.5 187.792C170.304 184.866 180.715 178.432 190.662 172.792C189.208 182.598 186.387 198.332 187.527 204.292C188.265 208.145 191.64 228.148 192.055 241.292C192.281 248.481 191.775 252.757 190.662 252.288Z" fill="black" fill-opacity="0.35"/>
<path d="M190 117.292C187 108.292 191.074 100.857 182.5 122.292C181.5 124.792 179.069 128.292 180.785 131.792C182.5 135.292 188 139.792 180 160.792C172 181.792 186.122 166.265 186.5 169.292L192.5 165.292L194.5 156.792L196.5 145.292L197 140.292L197.297 136.792L197.297 131.292L197 128.292L196.5 125.792L195.5 123.292L195 122.792L194.5 122.292L194 121.792L192.386 120.824C192.323 120.719 192.2 120.548 192 120.292C191.042 119.065 190 117.292 190 117.292Z" fill="black" fill-opacity="0.35"/>
<path d="M134 157.114C134 157.114 139.143 158.292 146.571 158.292C154 158.292 160 155.292 160 155.292" stroke="white" stroke-width="2"/>
</svg>
