<svg width="792" height="720" viewBox="0 0 792 720" fill="none" xmlns="http://www.w3.org/2000/svg">
<rect x="52" y="203.939" width="561.192" height="548.658" rx="20" transform="rotate(-20 52 203.939)" fill="black" fill-opacity="0.53"/>
<rect x="13" y="191.939" width="561.192" height="548.658" rx="20" transform="rotate(-20 13 191.939)" fill="#E2C6D4"/>
<path d="M314.793 304.378C253.636 333.556 109.041 605.577 182.977 587.401C256.914 569.225 457.994 609.199 457.994 609.199C425.263 385.515 375.951 275.201 314.793 304.378Z" fill="#DDE03A"/>
<path d="M304.83 312.032C243.673 341.209 99.0773 613.23 173.014 595.054C246.95 576.878 448.031 616.853 448.031 616.853C415.3 393.169 365.987 282.855 304.83 312.032Z" fill="black" fill-opacity="0.35"/>
<path d="M330.318 239.018C318.431 289.785 330.318 287.744 330.318 324.372C330.318 361 261.739 357.438 249.166 339.492C236.593 321.545 203.827 332.014 201.161 339.492C212.63 300.254 243.451 285.651 230.53 239.018C220.393 222.135 212.13 180.628 217.162 153.294C222.194 125.959 249.166 142.36 266.476 125.959C283.786 109.558 287.51 153.294 317.4 125.959C347.29 98.6243 317.4 181.722 330.318 187.189C343.236 192.655 330.318 239.018 330.318 239.018Z" fill="#866161"/>
<path d="M330.318 239.018C318.431 289.785 330.318 287.744 330.318 324.372C330.318 361 261.739 357.438 249.166 339.491C236.593 321.545 203.827 332.014 201.161 339.491C212.63 300.254 243.451 285.651 230.53 239.018M330.318 239.018C298.517 262.521 253.127 276.654 230.53 239.018M330.318 239.018C330.318 239.018 343.236 192.655 330.318 187.189C317.4 181.722 347.29 98.6243 317.4 125.959C287.51 153.294 283.786 109.558 266.476 125.959C249.166 142.36 222.194 125.959 217.162 153.294C212.13 180.628 220.393 222.135 230.53 239.018" stroke="white" stroke-width="5"/>
<path d="M271.868 192.614C271.149 207.839 277.914 210.436 281.386 209.831" stroke="white" stroke-width="3"/>
<path d="M233.74 296.72C191.242 251.803 98.5326 653.319 143.368 632.545C188.203 611.77 310.139 657.459 310.139 657.459C290.29 401.8 276.237 341.636 233.74 296.72Z" fill="#CD7575"/>
<path d="M3 461.51C39.3785 612.795 189.391 653.002 147.543 565.786C105.696 478.57 123.486 363.005 183.392 426.538C243.298 490.071 363.11 241.964 339.329 369.03C315.548 496.096 485.67 629.654 485.67 629.654" stroke="white" stroke-width="5"/>
<path d="M327.363 85.4674C439.621 187.004 337.365 191.397 372.752 286.65C372.752 286.65 356.146 262.596 341.755 274.623C327.363 286.65 342.862 271.343 347.29 247.289C351.718 223.234 329.922 273.457 331.792 271.343C333.661 269.229 215.026 327.668 191.197 271.343C167.368 215.018 215.106 -16.0689 327.363 85.4674Z" stroke="white" stroke-width="5"/>
<path d="M325.883 332.568C322.398 331.115 310.407 324.674 291.384 262.049C303.346 258.85 314.871 251.814 325.883 245.648C324.273 256.37 321.149 273.574 322.412 280.09C323.228 284.303 326.965 306.173 327.424 320.545C327.674 328.405 327.115 333.081 325.883 332.568Z" fill="black" fill-opacity="0.35"/>
<path d="M325.149 184.965C321.828 175.125 326.338 166.995 316.846 190.432C315.739 193.166 313.048 196.993 314.947 200.82C316.846 204.646 322.935 209.567 314.079 232.528C305.222 255.489 320.856 238.511 321.275 241.821L327.917 237.448L330.131 228.154L332.345 215.58L332.898 210.113L333.227 206.286L333.227 200.273L332.898 196.993L332.345 194.259L331.238 191.526L330.684 190.979L330.131 190.432L329.577 189.886L327.791 188.827C327.721 188.712 327.585 188.526 327.363 188.246C326.303 186.904 325.149 184.965 325.149 184.965Z" fill="black" fill-opacity="0.35"/>
<path d="M263.155 228.506C263.155 228.506 268.848 229.794 277.072 229.794C285.296 229.794 291.938 226.514 291.938 226.514" stroke="white" stroke-width="2"/>
<path d="M570.56 307.521C612.283 353 664.889 718.413 610.57 685.149C556.252 651.885 388.251 674.98 388.251 674.98C464.844 395.372 528.837 262.043 570.56 307.521Z" fill="#6373AF"/>
<path d="M468.163 251.819C497.787 300.021 481.396 298.631 468.163 337.173C455.002 375.505 535.851 370.298 549.103 352.585C555.857 353.807 582.808 356.835 551.539 319.679C516.113 277.584 547.11 311.479 541.022 297.811C534.933 284.144 546.382 269.383 546.382 269.383C551.263 265.838 555.788 260.826 559.841 254.076C569.978 237.193 586.35 193.429 581.318 166.095C576.286 138.76 549.315 155.161 532.005 138.76C514.695 122.359 522.041 166.095 492.151 138.76C462.261 111.425 481.081 194.523 468.163 199.99C455.245 205.457 468.163 251.819 468.163 251.819Z" fill="#E1CE8C"/>
<path d="M468.163 251.819C497.787 300.021 481.396 298.631 468.163 337.173C454.93 375.715 536.742 370.239 549.315 352.293M468.163 251.819C468.163 251.819 455.245 205.457 468.163 199.99C481.081 194.523 462.261 111.425 492.151 138.76C522.041 166.095 514.695 122.359 532.005 138.76C549.315 155.161 576.286 138.76 581.318 166.095C586.35 193.429 569.978 237.193 559.841 254.076C555.788 260.826 551.263 265.838 546.382 269.383M468.163 251.819C494.26 271.107 524.047 285.604 546.382 269.383M547.664 352.293C547.664 352.293 586.964 361.774 551.539 319.679C516.113 277.584 547.11 311.479 541.022 297.811C534.933 284.144 546.382 269.383 546.382 269.383" stroke="white" stroke-width="5"/>
<path d="M462.974 206.903C445.343 77.5232 449.137 190.503 439.727 134.193C430.317 77.884 490.097 46.1759 518.327 65.8568C546.556 85.5378 607.013 59.9595 588.624 84.9911C570.235 110.023 613.532 134.194 600.801 156.061C588.07 177.929 581.983 220.181 573.127 224.554" stroke="white" stroke-width="5"/>
<path d="M526.773 205.578C527.492 220.802 520.727 223.399 517.254 222.794" stroke="white" stroke-width="3"/>
<path d="M469.646 293.118C514.923 248.221 613.696 649.57 565.929 628.804C518.161 608.039 388.25 653.708 388.25 653.708C409.396 398.155 424.369 338.016 469.646 293.118Z" fill="#2F42A7"/>
<path d="M457.799 296.841C500.18 246.281 592.637 698.25 547.924 674.865C503.211 651.481 381.608 702.91 381.608 702.91C401.402 415.126 415.417 347.401 457.799 296.841Z" fill="black" fill-opacity="0.63"/>
<path d="M789 536.569C745.958 688.039 546.836 519.893 596.348 432.57C645.86 345.248 662.553 422.601 591.675 486.212C520.797 549.823 404.802 371.15 432.938 498.372C461.074 625.593 357.254 656.988 357.254 656.988" stroke="white" stroke-width="5"/>
<path d="M472.759 345.531C476.244 344.079 488.235 337.637 507.257 275.013C495.296 271.813 483.771 264.778 472.759 258.612C474.369 269.333 477.493 286.537 476.23 293.053C475.414 297.266 471.677 319.137 471.218 333.509C470.967 341.368 471.527 346.045 472.759 345.531Z" fill="black" fill-opacity="0.35"/>
<path d="M473.493 197.929C476.814 188.088 472.303 179.959 481.795 203.396C482.903 206.129 485.594 209.956 483.695 213.783C481.795 217.61 475.707 222.53 484.563 245.491C493.419 268.452 477.786 251.475 477.367 254.785L470.725 250.411L468.511 241.118L466.297 228.544L465.743 223.077L465.415 219.25L465.415 213.236L465.743 209.956L466.297 207.223L467.404 204.489L467.957 203.943L468.511 203.396L469.064 202.849L470.851 201.79C470.921 201.676 471.057 201.489 471.279 201.209C472.339 199.868 473.493 197.929 473.493 197.929Z" fill="black" fill-opacity="0.35"/>
<path d="M535.486 241.469C535.486 241.469 529.793 242.758 521.569 242.758C513.345 242.758 506.703 239.478 506.703 239.478" stroke="white" stroke-width="2"/>
</svg>
